Patient4_TMGait_0pt4_01_left_33_EMG.mot
version=1
nRows=20
nColumns=33
inDegrees=no
endheader
time	1LAddLong	2LGlutMax	3LGlutMed	4LIliopsoas	5LSemiMemb	6LBicFemLong	7LRecFem	8LVastMed	9LVastLat	10LGasMed	11LTibAnt	12lTibPost	13LPeroneusLong	14LSol	15LExtDigLong	16LFlexDigLong	17RAddLong	18RGlutMax	19RGlutMed	20RIliopsoas	21RSemiMemb	22RBicFemLong	23RRecFem	24RVastMed	25RVastLat	26RGasMed	27RTibAnt	28RTibPost	29RPeroneusLong	30RSol	31RExtDigLong	32RFlexDigLong
42.215	0.008087	-0.024261	-0.089111	0.014038	0.025177	-0.058594	0.038452	-0.005188	0.15976	-0.020905	-0.026093	0.001221	-0.047607	-0.000916	-0.053864	-0.001831	-0.005341	0.098419	-0.16586	-0.21927	0.028534	0.045013	0.27222	0.16754	0.059357	-0.022583	-0.005798	0.010223	0.37857	0.12756	-0.002289	-0.008698
42.216	0.003052	-0.020447	-0.015869	0.000916	0.04303	-0.057983	0.038605	-0.000458	0.15625	-0.031433	-0.071106	0.013885	-0.059204	0.046082	-0.1088	0.004425	-0.00351	0.074615	-0.26779	-0.063171	0.01358	0.020752	0.090179	0.051117	-0.037689	-0.024872	0.084991	-0.005798	0.16373	0.19959	-0.001068	-0.02182
42.217	0.005035	-0.014648	-0.002136	-0.007782	0.048676	-0.033112	0.035858	-0.00061	0.14435	-0.020447	-0.065918	0.00351	-0.050964	-0.036011	-0.002899	-0.000153	-0.027771	0.10544	-0.20477	0.18997	0.012054	0.034332	-0.12009	-0.080414	-0.081482	-0.016327	0.15106	-0.016479	-0.25284	0.10223	-0.002747	-0.015106
42.218	0.006409	-0.055847	-0.054779	0.007019	0.04837	-0.051575	0.052338	0.006714	0.14252	-0.053558	-0.02533	0.00473	-0.070496	-0.073547	-0.067596	0.000763	-0.020294	0.16342	-0.28732	0.35965	0.016937	0.037537	-0.16419	-0.03418	-0.20996	-0.010529	0.13886	-0.012054	-0.30212	-0.017853	-0.001831	-0.01236
42.219	0.012512	-0.06073	-0.090942	0.006714	0.042725	-0.03891	0.062714	0.008545	0.13748	-0.090942	0.043335	0.00946	-0.031738	0.022278	0.002289	-0.003052	-0.008545	0.20386	0.15625	0.14755	0.019531	0.040588	0.002747	0.087891	-0.12131	0.000916	0.10651	-0.010071	0.45136	-0.11704	-0.009003	-0.011749
42.22	-0.003052	-0.04776	-0.079193	0.017242	0.014496	0.006561	0.025024	0.018463	0.12482	-0.086975	0.032349	0.00061	-0.022736	0.084534	-0.026703	-0.005035	-0.001831	0.15549	0.14481	-0.037231	0.015106	0.002899	-0.032654	0.11536	-0.002899	0.001373	-0.080719	-0.010223	1.0307	-0.1445	-0.002441	-0.005646
42.221	0.003204	-0.076599	-0.049896	0.004883	-0.013733	0.019073	0.041046	0.012207	0.10635	-0.053406	0.00351	0.005646	0.011597	-0.011292	-0.085449	0.002594	-0.00351	0.15305	0.06958	0.05249	0.020447	0.016785	-0.053558	0.1738	-0.036316	-0.000153	-0.19775	-0.011749	1.1131	-0.10544	-0.004272	-0.015106
42.222	0.003052	-0.1088	-0.045166	-0.004425	0.01297	0.022736	0.064545	0.015869	0.077515	-0.027313	-0.006409	0.000916	0.02243	-0.10437	-0.06485	-0.005188	0.004578	0.19089	-0.04425	0.14008	0.018921	0.038452	-0.095673	0.19852	-0.094452	-0.005951	0.2948	-0.007019	0.34576	-0.087585	-0.006104	-0.010681
42.223	0.00351	-0.089722	-0.047607	0.011139	0.045471	0.053253	0.059357	0.012817	0.061646	-0.041504	0	0.004272	0.019836	-0.1445	-0.034485	-0.006256	-0.00061	0.10254	0.11276	0.12924	0.022583	0.040131	-0.21774	0.22049	0.002441	0.004272	-0.22415	-0.006409	-0.85175	-0.20309	-0.003204	-0.011749
42.224	-0.004425	-0.07309	-0.059052	0.001831	0.033722	0.063171	0.040283	0.00885	0.053406	-0.0354	0.002899	0.00412	0.01358	-0.16525	-0.014038	-0.021057	-0.004883	0.13138	0.092773	-0.00824	0.024719	0.01709	-0.086975	0.13214	0.074005	0.019226	-0.32044	-0.006561	-1.3965	-0.31769	-0.007477	-0.001526
42.225	-0.003204	-0.077972	-0.070343	-0.009308	0.015717	0.04364	0.02121	0.018921	0.050201	-0.04837	0.003052	0.010223	-0.024261	-0.13443	-0.01236	0.012512	-0.001831	0.24979	0.19898	-0.073395	0.014191	-0.016479	-0.26581	-0.053101	0.15213	0.030212	-0.095825	-0.007629	0.07843	-0.48813	-0.001831	-0.002594
42.226	0.004578	-0.087738	-0.061493	-0.015564	0.014496	0.038452	0.016327	0.010681	0.050354	-0.056	0.00946	0.006256	-0.040588	-0.1178	0.020294	0.003052	0.003967	0.25497	0.22186	-0.086212	-0.00351	-0.010376	-0.45624	-0.19348	0.17883	0.010071	-0.06897	0.000305	0.72342	-0.56244	-0.000458	0.005493
42.227	0.007019	-0.11871	-0.07019	-0.00412	-0.010071	0.024261	0.024872	0.011597	0.033569	-0.073853	0.010986	0.004425	-0.038605	-0.001678	0.028229	0.00412	0.002441	0.23529	-0.054932	-0.020294	0.007172	-0.019836	-0.27649	-0.13626	0.14099	-0.009766	-0.27512	-0.001984	0.18402	-0.34424	0.004883	0.002594
42.228	0.008698	-0.12512	-0.092621	0.021515	-0.015106	0.039825	-0.001373	0.008392	0.026855	-0.07782	0.011292	0.002289	-0.026245	0.049286	0.049896	-0.003204	0.00946	0.15381	-0.31967	-0.031433	0.00412	-0.02121	-0.24628	-0.13611	0.084839	-0.010529	-0.4953	-0.007477	-0.29526	-0.20676	-0.003967	-0.001678
42.229	0.011139	-0.12848	-0.09613	0.006104	-0.00473	0.050507	0.010223	0.00824	0.032501	-0.05188	0.009613	0.002747	-0.02655	0.068359	0.027466	0.003204	0.009918	0.15152	-0.28763	-0.015106	-0.002441	-0.00061	-0.27542	-0.058746	0.067139	-0.00824	0.097961	-0.006714	-0.73273	-0.009308	-0.009766	0.00061
42.23	0.011444	-0.13641	-0.068817	0.018311	-0.018005	0.018616	-0.006866	0.004425	0.034332	0.000305	0.016785	0.00412	-0.007324	0.060577	-0.003357	0.005951	0.011597	0.15533	-0.43274	0.000916	0.003967	0.003967	-0.22537	-0.059662	0.04364	0.000153	0.24857	-0.002594	-0.37811	0.14511	-0.006714	-0.006256
42.231	0.016785	-0.10941	-0.046692	0.009918	-0.035858	-0.020142	-0.007172	0.006714	0.028534	0.011292	0.006866	0.007324	0.019836	0.04837	-0.016785	0.002136	0.006714	0.15167	-0.053558	-0.027618	0.026245	0.014954	-0.11673	-0.068512	0.015411	-0.005493	-0.057831	-0.004425	-0.95474	0.20783	-0.003967	-0.008087
42.232	0.016327	-0.10101	-0.016327	-0.001831	-0.051117	-0.021057	-0.019531	0.002289	0.031281	0.037689	-0.009003	0.006409	-0.010223	0.028992	0.015259	0.000458	0.010834	0.16373	-0.10696	-0.010376	0.026855	-0.002747	-0.09201	-0.083923	0.016174	-0.001678	-0.071716	-0.008698	0.56671	0.15625	-0.001221	-0.006104
42.233	0.012665	-0.12482	-0.089569	-0.013733	-0.031281	-0.024719	-0.03891	0.000153	0.034943	0.021515	0.002594	0.007172	-0.014191	0.024719	0.017853	0.005341	0.020752	0.15198	-0.32105	0.002441	0.026398	-0.015564	-0.096436	-0.10696	0.011902	-0.010223	0.21118	0.00473	1.2549	0.39185	-0.001831	-0.017242
42.234	0.023193	-0.11566	-0.11643	-0.024719	-0.006409	-0.015564	-0.05661	0.000916	0.042419	0.0177	0.002289	0.007477	0.013428	0.03067	0.006409	-0.001068	0.019226	0.15274	-1.2404	-0.019073	-0.028381	-0.021973	-0.045624	-0.019379	0.000153	0.007629	0.24902	-0.000763	1.049	0.36591	-0.001831	-0.022278
